<svg width="52" height="33" viewBox="0 0 52 33" fill="none" xmlns="http://www.w3.org/2000/svg">
<path d="M0 14.9379L5.15936 1.89984H7.86011L12.9822 14.9379H9.77857L7.30133 8.32575C7.21441 8.06499 7.11507 7.7856 7.00332 7.48759C6.90398 7.18958 6.80464 6.87915 6.7053 6.5563C6.60597 6.23345 6.51284 5.92302 6.42592 5.62501C6.339 5.32699 6.26449 5.0476 6.20241 4.78684L6.74256 4.76822C6.66805 5.07865 6.58734 5.38287 6.50042 5.68088C6.4135 5.9789 6.32037 6.27691 6.22103 6.57492C6.12169 6.87294 6.01615 7.17095 5.90439 7.46896C5.80505 7.75456 5.69951 8.05257 5.58775 8.363L3.12914 14.9379H0ZM2.45861 12.4421L3.46441 10.0207H9.42468L10.4305 12.4421H2.45861ZM18.6581 15.1242C17.5654 15.1242 16.6093 14.9069 15.7898 14.4723C14.9826 14.0377 14.3556 13.4417 13.9086 12.6842C13.474 11.9143 13.2567 11.0389 13.2567 10.058C13.2567 9.28809 13.3808 8.58651 13.6292 7.95324C13.8775 7.30754 14.2252 6.75497 14.6722 6.29554C15.1317 5.8361 15.6656 5.48221 16.274 5.23386C16.8949 4.9731 17.5716 4.84272 18.3043 4.84272C18.9996 4.84272 19.6329 4.96689 20.2041 5.21524C20.7753 5.46358 21.272 5.81126 21.6942 6.25828C22.1163 6.7053 22.4392 7.23304 22.6627 7.84148C22.8862 8.44992 22.9918 9.11425 22.9793 9.83445L22.9607 10.654H15.1006L14.6536 8.95903H20.5207L20.2041 9.2943V8.92178C20.1793 8.61135 20.0799 8.34438 19.9061 8.12087C19.7447 7.88494 19.5274 7.69868 19.2542 7.56209C18.9934 7.4255 18.6954 7.35721 18.3601 7.35721C17.8634 7.35721 17.4413 7.45655 17.0936 7.65522C16.7583 7.84148 16.5038 8.11466 16.3299 8.47476C16.1561 8.83486 16.0692 9.28188 16.0692 9.81582C16.0692 10.3498 16.1809 10.8216 16.4044 11.2314C16.6403 11.6412 16.9756 11.9578 17.4102 12.1813C17.8572 12.4048 18.385 12.5166 18.9934 12.5166C19.4032 12.5166 19.7757 12.4545 20.111 12.3303C20.4462 12.2061 20.8063 11.995 21.1913 11.697L22.5882 13.6714C22.2033 13.9942 21.7935 14.2674 21.3589 14.4909C20.9243 14.702 20.4773 14.8572 20.0178 14.9566C19.5708 15.0683 19.1176 15.1242 18.6581 15.1242ZM29.3127 19.2219C28.518 19.2219 27.7171 19.1039 26.91 18.868C26.1153 18.6445 25.4696 18.3465 24.9729 17.9739L26.0159 15.8506C26.4133 16.1238 26.8603 16.3349 27.357 16.4839C27.8661 16.6453 28.3938 16.726 28.9402 16.726C29.5735 16.726 30.0888 16.6329 30.4861 16.4466C30.8835 16.2604 31.1753 15.981 31.3616 15.6085C31.5602 15.2359 31.6596 14.7703 31.6596 14.2115V12.5724L32.2183 12.6842C32.1438 13.0691 31.9327 13.4292 31.5851 13.7645C31.2498 14.0998 30.8338 14.3667 30.3371 14.5654C29.8404 14.7641 29.3189 14.8634 28.7726 14.8634C27.8785 14.8634 27.0776 14.6585 26.3698 14.2488C25.662 13.8266 25.1033 13.2492 24.6935 12.5166C24.2962 11.7715 24.0975 10.9147 24.0975 9.9462C24.0975 8.95282 24.2962 8.0712 24.6935 7.30133C25.1033 6.53146 25.6558 5.92923 26.3512 5.49462C27.0466 5.06002 27.8289 4.84272 28.6981 4.84272C29.0582 4.84272 29.4058 4.88618 29.7411 4.9731C30.0888 5.0476 30.4054 5.15936 30.691 5.30837C30.989 5.45737 31.2498 5.62501 31.4733 5.81126C31.7092 5.99752 31.9017 6.20241 32.0507 6.42592C32.1997 6.64943 32.2928 6.87294 32.3301 7.09645L31.7154 7.28271L31.8272 5.0476H34.677V14.1184C34.677 14.9255 34.5528 15.6457 34.3044 16.279C34.0685 16.9123 33.7146 17.4462 33.2428 17.8808C32.7833 18.3154 32.2246 18.6445 31.5664 18.868C30.9083 19.1039 30.1571 19.2219 29.3127 19.2219ZM29.3872 12.5352C29.8715 12.5352 30.2875 12.4296 30.6351 12.2186C30.9952 12.0075 31.2684 11.7094 31.4547 11.3245C31.6534 10.9396 31.7527 10.4926 31.7527 9.98345C31.7527 9.44951 31.6534 8.99007 31.4547 8.60514C31.2684 8.22021 30.9952 7.92219 30.6351 7.7111C30.2875 7.48759 29.8715 7.37583 29.3872 7.37583C28.9278 7.37583 28.5242 7.48759 28.1765 7.7111C27.8289 7.92219 27.5557 8.22021 27.357 8.60514C27.1707 8.99007 27.0776 9.4433 27.0776 9.96483C27.0776 10.4864 27.1707 10.9396 27.357 11.3245C27.5557 11.7094 27.8289 12.0075 28.1765 12.2186C28.5242 12.4296 28.9278 12.5352 29.3872 12.5352ZM37.4321 14.9379V5.0476H40.4309V14.9379H37.4321ZM38.9408 3.09189C38.3696 3.09189 37.9226 2.96151 37.5998 2.70075C37.2893 2.42757 37.1341 2.04263 37.1341 1.54595C37.1341 1.08651 37.2955 0.713991 37.6184 0.428395C37.9412 0.142798 38.382 2.68898e-07 38.9408 2.68898e-07C39.4872 2.68898e-07 39.9156 0.13659 40.226 0.409769C40.5488 0.67053 40.7103 1.04926 40.7103 1.54595C40.7103 2.00538 40.5488 2.3779 40.226 2.6635C39.9156 2.94909 39.4872 3.09189 38.9408 3.09189ZM46.5828 15.1242C45.6391 15.1242 44.7947 14.9752 44.0497 14.6772C43.3047 14.3667 42.7086 13.9445 42.2616 13.4106L44.0869 11.846C44.4719 12.231 44.9065 12.5166 45.3907 12.7028C45.875 12.8767 46.3345 12.9636 46.7691 12.9636C46.9305 12.9636 47.0733 12.945 47.1975 12.9077C47.3216 12.8705 47.4272 12.8208 47.5141 12.7587C47.6134 12.6842 47.6879 12.6035 47.7376 12.5166C47.7873 12.4172 47.8121 12.3055 47.8121 12.1813C47.8121 11.933 47.7066 11.7467 47.4955 11.6225C47.3961 11.5604 47.2161 11.4859 46.9553 11.399C46.6946 11.2997 46.3593 11.2003 45.9495 11.101C45.3659 10.952 44.8568 10.7719 44.4222 10.5609C44 10.3498 43.6523 10.1076 43.3792 9.83445C43.1308 9.5861 42.9383 9.30051 42.8018 8.97766C42.6776 8.65481 42.6155 8.29471 42.6155 7.89736C42.6155 7.28891 42.7955 6.75497 43.1556 6.29554C43.5282 5.8361 44.0124 5.48221 44.6085 5.23386C45.2045 4.9731 45.8502 4.84272 46.5455 4.84272C47.0919 4.84272 47.6072 4.90481 48.0915 5.02898C48.5882 5.15315 49.0476 5.32699 49.4698 5.5505C49.9044 5.77401 50.2893 6.04098 50.6246 6.35141L49.0414 8.12087C48.8303 7.90978 48.582 7.72352 48.2964 7.56209C48.0108 7.38825 47.7252 7.25166 47.4396 7.15232C47.154 7.04057 46.887 6.98469 46.6387 6.98469C46.4524 6.98469 46.2848 7.00332 46.1358 7.04057C45.9992 7.0654 45.8812 7.11507 45.7819 7.18958C45.695 7.25166 45.6267 7.33237 45.577 7.43171C45.5273 7.51863 45.5025 7.61797 45.5025 7.72973C45.5025 7.86632 45.5335 7.99049 45.5956 8.10224C45.6701 8.20158 45.7695 8.29471 45.8936 8.38163C46.0054 8.44372 46.1979 8.52443 46.471 8.62377C46.7566 8.7231 47.1292 8.83486 47.5886 8.95903C48.1722 9.12046 48.6689 9.30671 49.0787 9.51781C49.5008 9.71648 49.8361 9.95241 50.0845 10.2256C50.2956 10.4367 50.4446 10.685 50.5315 10.9706C50.6308 11.2438 50.6805 11.5418 50.6805 11.8647C50.6805 12.4979 50.5004 13.0629 50.1403 13.5596C49.7927 14.0439 49.3084 14.4288 48.6875 14.7144C48.0791 14.9876 47.3775 15.1242 46.5828 15.1242ZM1.62045 31.9379V18.8998H7.39446C8.30092 18.8998 9.05837 19.0302 9.66681 19.291C10.2877 19.5393 10.7595 19.9056 11.0824 20.3899C11.4052 20.8618 11.5666 21.4392 11.5666 22.1221C11.5666 22.8547 11.3804 23.4694 11.0079 23.9661C10.6478 24.4628 10.1263 24.8104 9.4433 25.0091L9.42468 24.618C9.98345 24.7546 10.4739 24.9843 10.8961 25.3071C11.3307 25.6176 11.666 26.0025 11.9019 26.4619C12.1378 26.9089 12.2558 27.4181 12.2558 27.9892C12.2558 28.6474 12.1378 29.2248 11.9019 29.7215C11.6784 30.2181 11.3556 30.6341 10.9334 30.9694C10.5236 31.2922 10.0331 31.5344 9.46193 31.6958C8.90315 31.8572 8.28229 31.9379 7.59934 31.9379H1.62045ZM4.63784 29.2744H7.46896C7.99049 29.2744 8.39405 29.1503 8.67964 28.9019C8.97766 28.6536 9.12666 28.2997 9.12666 27.8402C9.12666 27.5546 9.05216 27.3125 8.90315 27.1138C8.76656 26.9152 8.56789 26.7662 8.30713 26.6668C8.04636 26.5675 7.73593 26.5178 7.37583 26.5178H4.63784V29.2744ZM4.63784 24.1151H6.96607C7.28891 24.1151 7.56209 24.0654 7.7856 23.9661C8.00911 23.8543 8.17675 23.7053 8.2885 23.519C8.41267 23.3204 8.47476 23.0907 8.47476 22.8299C8.47476 22.4325 8.33817 22.1221 8.06499 21.8986C7.79181 21.6751 7.38204 21.5633 6.83568 21.5633H4.63784V24.1151ZM19.6353 31.9379V25.8659C19.6353 25.3568 19.4925 24.9843 19.2069 24.7484C18.9337 24.5 18.5488 24.3758 18.0521 24.3758C17.5678 24.3758 17.1332 24.469 16.7483 24.6552C16.3758 24.8291 16.0157 25.1209 15.668 25.5306L13.8799 23.7984C14.4759 23.19 15.1589 22.7119 15.9287 22.3642C16.6986 22.0166 17.5368 21.8427 18.4432 21.8427C19.2752 21.8427 19.9954 21.9669 20.6038 22.2152C21.2123 22.4636 21.6841 22.8423 22.0194 23.3514C22.3546 23.8605 22.5223 24.5062 22.5223 25.2885V31.9379H19.6353ZM17.0649 32.1242C16.444 32.1242 15.8791 32 15.37 31.7517C14.8733 31.5033 14.4759 31.1619 14.1779 30.7272C13.8923 30.2802 13.7495 29.7587 13.7495 29.1627C13.7495 28.6536 13.8426 28.2065 14.0289 27.8216C14.2152 27.4367 14.4883 27.12 14.8484 26.8717C15.221 26.6109 15.6804 26.4185 16.2267 26.2943C16.7855 26.1577 17.4312 26.0894 18.1638 26.0894H21.1626L20.995 27.9706H18.2383C17.9776 27.9706 17.7479 27.9955 17.5492 28.0451C17.3505 28.0824 17.1829 28.1507 17.0463 28.25C16.9097 28.3369 16.8041 28.4425 16.7296 28.5666C16.6676 28.6908 16.6365 28.8398 16.6365 29.0137C16.6365 29.1999 16.6862 29.3614 16.7855 29.4979C16.8849 29.6345 17.0152 29.7401 17.1767 29.8146C17.3505 29.8891 17.5492 29.9263 17.7727 29.9263C18.0955 29.9263 18.3998 29.8767 18.6854 29.7773C18.9834 29.6656 19.2441 29.5104 19.4676 29.3117C19.7036 29.113 19.8898 28.8833 20.0264 28.6225L20.5479 29.9636C20.2872 30.3858 19.9705 30.7583 19.598 31.0811C19.2379 31.404 18.8406 31.6585 18.406 31.8448C17.9838 32.0311 17.5368 32.1242 17.0649 32.1242ZM24.914 31.9379V22.0476H27.7637L27.8755 24.0592L27.2608 24.2827C27.3974 23.8357 27.6395 23.4321 27.9872 23.072C28.3473 22.6995 28.7757 22.4015 29.2724 22.178C29.7691 21.9545 30.2906 21.8427 30.837 21.8427C31.582 21.8427 32.2091 21.9979 32.7182 22.3084C33.2273 22.6064 33.606 23.0596 33.8544 23.6681C34.1151 24.2641 34.2455 25.0029 34.2455 25.8845V31.9379H31.2467V26.108C31.2467 25.7107 31.1909 25.3816 31.0791 25.1209C30.9674 24.8601 30.7997 24.6676 30.5762 24.5435C30.3527 24.4193 30.0733 24.3634 29.7381 24.3758C29.4773 24.3758 29.2352 24.4193 29.0116 24.5062C28.7881 24.5807 28.5895 24.6987 28.4156 24.8601C28.2542 25.0091 28.13 25.183 28.0431 25.3816C27.9562 25.5803 27.9127 25.8038 27.9127 26.0522V31.9379H26.404C26.0812 31.9379 25.7894 31.9379 25.5286 31.9379C25.2803 31.9379 25.0754 31.9379 24.914 31.9379ZM39.6236 29.0323L38.5619 26.7599L43.1625 22.0476H47.0925L39.6236 29.0323ZM36.7552 31.9379V18.1548H39.754V31.9379H36.7552ZM43.4419 31.9379L39.9961 27.4677L42.1194 25.8287L46.9994 31.9379H43.4419ZM49.4944 32.1428C48.9853 32.1428 48.5879 32 48.3023 31.7144C48.0292 31.4164 47.8926 31.0004 47.8926 30.4665C47.8926 29.9698 48.0354 29.5662 48.321 29.2558C48.619 28.933 49.0101 28.7715 49.4944 28.7715C50.0035 28.7715 50.4009 28.9205 50.6864 29.2186C50.972 29.5042 51.1148 29.9201 51.1148 30.4665C51.1148 30.9632 50.9596 31.3667 50.6492 31.6772C50.3512 31.9876 49.9662 32.1428 49.4944 32.1428Z" fill="#3C63C6"/>
</svg>
